#!OML:ASF H:\BreakDance\Project 1\Capture day 1\Session 1\Male.ASF
:FULLY-SPECIFIED
:DEGREES
375
root 26.2007 14.394 -5.99653 -343.72 -8.31612 369.806
lowerback -1.27171 -5.19557 -11.0507
upperback 0.573963 -6.7128 -0.194297
thorax 2.55964 -3.50309 5.63702
lowerneck 5.18107 -18.6645 -10.7318
upperneck -16.4012 -24.199 19.6868
head -1.86767 -12.7793 7.57439
rclavicle 1.16595e-013 -2.74851e-014
rhumerus -53.5207 -4.41966 -81.8129
rradius 23.8821
rwrist 7.56463
rhand -33.7178 -28.342
rfingers 7.12502
rthumb -6.90718 -58.2093
lclavicle 1.16595e-013 -2.74851e-014
lhumerus -40.0785 1.44685 40.612
lradius 15.975
lwrist -20.2354
lhand -8.2083 -23.1278
lfingers 7.12502
lthumb 17.7084 6.08586
rfemur -31.583 -5.55698 18.975
rtibia 85.9033
rfoot -18.9352 4.256
rtoes -11.3162
lfemur -32.1032 12.0884 -20.9203
ltibia 62.7649
lfoot -42.9186 -7.92261
ltoes -36.7275
376
root 26.2161 14.3427 -6.1041 -343.579 -8.01449 369.806
lowerback -1.32445 -5.1279 -10.9902
upperback 0.609194 -6.60987 -0.462659
thorax 2.56789 -3.44906 5.32584
lowerneck 5.14948 -18.8039 -10.7401
upperneck -16.7406 -24.3403 20.0229
head -1.89182 -12.8767 7.67068
rclavicle 3.90115e-014 8.54774e-015
rhumerus -53.2989 -4.3538 -83.0561
rradius 24.0699
rwrist 5.90123
rhand -33.3716 -29.0059
rfingers 7.12502
rthumb -6.57294 -58.8839
lclavicle 3.90115e-014 8.54774e-015
lhumerus -38.5941 6.20105 38.122
lradius 15.6733
lwrist -22.9762
lhand -10.2896 -23.492
lfingers 7.12502
lthumb 15.7047 5.89071
rfemur -30.5172 -5.70721 19.176
rtibia 85.4189
rfoot -18.8007 4.2515
rtoes -12.2404
lfemur -33.1019 12.5902 -20.9294
ltibia 63.5294
lfoot -43.5175 -8.96081
ltoes -35.8667
377
root 26.2236 14.3077 -6.20451 -343.427 -7.91735 369.873
lowerback -1.45132 -5.0171 -11.049
upperback 0.619724 -6.43829 -0.766758
thorax 2.59065 -3.36192 5.04271
lowerneck 5.08787 -18.948 -10.6967
upperneck -17.0011 -24.4926 20.2818
head -1.904 -12.9745 7.73113
rclavicle -7.70291e-015 -2.52457e-014
rhumerus -53.0588 -3.90958 -84.5487
rradius 24.3908
rwrist 4.19133
rhand -32.8159 -29.7981
rfingers 7.12502
rthumb -6.03648 -59.6921
lclavicle -7.70291e-015 -2.52457e-014
lhumerus -37.4316 10.3994 36.4133
lradius 15.7204
lwrist -24.6378
lhand -12.248 -23.848
lfingers 7.12502
lthumb 13.818 5.67303
rfemur -29.5069 -5.70221 19.207
rtibia 84.8133
rfoot -18.6636 4.44652
rtoes -11.1759
lfemur -33.9622 13.1617 -21.084
ltibia 64.0498
lfoot -43.9653 -9.65879
ltoes -35.2086
378
root 26.2222 14.2898 -6.29698 -343.253 -7.97991 370.003
lowerback -1.65104 -4.88884 -11.2423
upperback 0.586582 -6.23289 -1.08502
thorax 2.61746 -3.25836 4.8167
lowerneck 5.0103 -19.0839 -10.6148
upperneck -17.166 -24.6442 20.438
head -1.90578 -13.0643 7.75208
rclavicle 7.36497e-014 3.29983e-014
rhumerus -52.8351 -3.16347 -86.1434
rradius 24.8304
rwrist 2.74611
rhand -32.0602 -30.6292
rfingers 7.12502
rthumb -5.30689 -60.5428
lclavicle 7.36497e-014 3.29983e-014
lhumerus -36.4786 13.6519 35.6117
lradius 16.0613
lwrist -24.9225
lhand -14.1252 -24.1763
lfingers 7.12502
lthumb 12.0084 5.45916
rfemur -28.5858 -5.63476 19.1055
rtibia 84.0962
rfoot -18.5111 4.69458
rtoes -9.02392
lfemur -34.7159 13.7595 -21.3666
ltibia 64.3436
lfoot -44.241 -10.0335
ltoes -34.7101
379
root 26.2123 14.2892 -6.38075 -343.045 -8.12244 370.111
lowerback -1.90331 -4.79364 -11.5197
upperback 0.490705 -6.06674 -1.33442
thorax 2.63192 -3.17343 4.70402
lowerneck 4.94382 -19.1718 -10.6032
upperneck -17.231 -24.7532 20.493
head -1.89227 -13.1203 7.75147
rclavicle 4.21423e-014 -3.97569e-015
rhumerus -52.6757 -2.10162 -87.6729
rradius 25.3931
rwrist 1.77227
rhand -31.1944 -31.3832
rfingers 7.12502
rthumb -4.47086 -61.316
lclavicle 4.21423e-014 -3.97569e-015
lhumerus -35.7334 15.8544 35.707
lradius 16.6299
lwrist -23.8374
lhand -15.981 -24.4658
lfingers 7.12502
lthumb 10.2185 5.26596
rfemur -27.7538 -5.59818 19.0023
rtibia 83.2519
rfoot -18.3458 4.83252
rtoes -6.80047
lfemur -35.386 14.3262 -21.6557
ltibia 64.4401
lfoot -44.3341 -10.1603
ltoes -34.3634
380
root 26.1957 14.3054 -6.45552 -342.817 -8.27971 370.146
lowerback -2.18552 -4.75261 -11.8181
upperback 0.34388 -5.97205 -1.48078
thorax 2.63479 -3.12287 4.7044
lowerneck 4.88849 -19.203 -10.693
upperneck -17.2083 -24.8077 20.4649
head -1.86217 -13.1365 7.73909
rclavicle -3.66758e-014 5.60573e-014
rhumerus -52.6024 -0.794589 -89.0118
rradius 26.0915
rwrist 1.32572
rhand -30.344 -31.9188
rfingers 7.12502
rthumb -3.64967 -61.8673
lclavicle -3.66758e-014 5.60573e-014
lhumerus -35.1382 17.0038 36.6253
lradius 17.348
lwrist -21.5488
lhand -17.9064 -24.6956
lfingers 7.12502
lthumb 8.36063 5.11898
rfemur -26.9894 -5.70434 18.9776
rtibia 82.265
rfoot -18.1916 4.70508
rtoes -5.68621
lfemur -35.9621 14.7953 -21.8615
ltibia 64.3691
lfoot -44.2517 -10.124
ltoes -34.1756
381
root 26.1757 14.3378 -6.52213 -342.595 -8.41036 370.068
lowerback -2.47613 -4.74965 -12.0341
upperback 0.172981 -5.93126 -1.54845
thorax 2.62558 -3.09717 4.73839
lowerneck 4.85119 -19.1977 -10.8332
upperneck -17.1224 -24.8268 20.3824
head -1.82319 -13.128 7.71838
rclavicle 3.72721e-014 -7.15625e-015
rhumerus -52.6226 0.62646 -90.1312
rradius 26.9428
rwrist 1.31643
rhand -29.7041 -32.1644
rfingers 7.12502
rthumb -3.03172 -62.1226
lclavicle 3.72721e-014 -7.15625e-015
lhumerus -34.5891 17.284 38.1862
lradius 18.137
lwrist -18.4746
lhand -19.9249 -24.8337
lfingers 7.12502
lthumb 6.41235 5.04919
rfemur -26.2639 -6.05757 19.0793
rtibia 81.1282
rfoot -18.0501 4.19171
rtoes -6.72776
lfemur -36.4133 15.1033 -21.914
ltibia 64.1454
lfoot -44.007 -9.97401
ltoes -34.1455
